<svg width="186" height="68" viewBox="0 0 186 68" fill="none" xmlns="http://www.w3.org/2000/svg">
<rect width="186" height="68" fill="#1E1E1E"/>
<rect width="186" height="68" fill="#13222A"/>
<path d="M12.6307 35.3409V33.2955L29.0966 24.9091V28.1818L16.4659 34.267L16.5682 34.0625V34.5739L16.4659 34.3693L29.0966 40.4545V43.7273L12.6307 35.3409Z" fill="#545857"/>
<path d="M35.9009 47V20.8182H44.7475C46.793 20.8182 48.4719 21.1676 49.7844 21.8665C51.0969 22.5568 52.0685 23.5071 52.6992 24.7173C53.3299 25.9276 53.6452 27.304 53.6452 28.8466C53.6452 30.3892 53.3299 31.7571 52.6992 32.9503C52.0685 34.1435 51.1012 35.081 49.7972 35.7628C48.4933 36.4361 46.8271 36.7727 44.7987 36.7727H37.6396V33.9091H44.6964C46.0941 33.9091 47.2191 33.7045 48.0714 33.2955C48.9322 32.8864 49.5543 32.3068 49.9379 31.5568C50.3299 30.7983 50.5259 29.8949 50.5259 28.8466C50.5259 27.7983 50.3299 26.8821 49.9379 26.098C49.5458 25.3139 48.9194 24.7088 48.0586 24.2827C47.1978 23.848 46.06 23.6307 44.6452 23.6307H39.0714V47H35.9009ZM48.2248 35.2386L54.668 47H50.9862L44.6452 35.2386H48.2248ZM66.5412 47.4091C64.6491 47.4091 63.017 46.9915 61.6449 46.1562C60.2812 45.3125 59.2287 44.1364 58.4872 42.6278C57.7543 41.1108 57.3878 39.3466 57.3878 37.3352C57.3878 35.3239 57.7543 33.5511 58.4872 32.017C59.2287 30.4744 60.2599 29.2727 61.581 28.4119C62.9105 27.5426 64.4616 27.108 66.2344 27.108C67.2571 27.108 68.267 27.2784 69.2642 27.6193C70.2614 27.9602 71.169 28.5142 71.9872 29.2812C72.8054 30.0398 73.4574 31.0455 73.9432 32.2983C74.429 33.5511 74.6719 35.0937 74.6719 36.9261V38.2045H59.5355V35.5966H71.6037C71.6037 34.4886 71.3821 33.5 70.9389 32.6307C70.5043 31.7614 69.8821 31.0753 69.0724 30.5724C68.2713 30.0696 67.3253 29.8182 66.2344 29.8182C65.0327 29.8182 63.9929 30.1165 63.1151 30.7131C62.2457 31.3011 61.5767 32.0682 61.108 33.0142C60.6392 33.9602 60.4048 34.9744 60.4048 36.0568V37.7955C60.4048 39.2784 60.6605 40.5355 61.1719 41.5668C61.6918 42.5895 62.4119 43.3693 63.3324 43.9062C64.2528 44.4347 65.3224 44.6989 66.5412 44.6989C67.3338 44.6989 68.0497 44.5881 68.6889 44.3665C69.3366 44.1364 69.8949 43.7955 70.3636 43.3438C70.8324 42.8835 71.1946 42.3125 71.4503 41.6307L74.3651 42.4489C74.0582 43.4375 73.5426 44.3068 72.8182 45.0568C72.0938 45.7983 71.1989 46.3778 70.1335 46.7955C69.0682 47.2045 67.8707 47.4091 66.5412 47.4091ZM82.2784 35.1875V47H79.2614V27.3636H82.1761V30.4318H82.4318C82.892 29.4347 83.5909 28.6335 84.5284 28.0284C85.4659 27.4148 86.6761 27.108 88.1591 27.108C89.4886 27.108 90.652 27.3807 91.6491 27.9261C92.6463 28.4631 93.4219 29.2812 93.9759 30.3807C94.5298 31.4716 94.8068 32.8523 94.8068 34.5227V47H91.7898V34.7273C91.7898 33.1847 91.3892 31.983 90.5881 31.1222C89.7869 30.2528 88.6875 29.8182 87.2898 29.8182C86.3267 29.8182 85.4659 30.027 84.7074 30.4446C83.9574 30.8622 83.3651 31.4716 82.9304 32.2727C82.4957 33.0739 82.2784 34.0455 82.2784 35.1875ZM107.735 47.4091C106.098 47.4091 104.654 46.9957 103.401 46.169C102.148 45.3338 101.168 44.1577 100.461 42.6406C99.7532 41.1151 99.3995 39.3125 99.3995 37.233C99.3995 35.1705 99.7532 33.3807 100.461 31.8636C101.168 30.3466 102.152 29.1747 103.414 28.348C104.675 27.5213 106.132 27.108 107.786 27.108C109.064 27.108 110.074 27.321 110.816 27.7472C111.566 28.1648 112.137 28.642 112.529 29.179C112.929 29.7074 113.24 30.142 113.462 30.483H113.718V20.8182H116.735V47H113.82V43.983H113.462C113.24 44.3409 112.925 44.7926 112.516 45.3381C112.107 45.875 111.523 46.3565 110.765 46.7827C110.006 47.2003 108.996 47.4091 107.735 47.4091ZM108.144 44.6989C109.354 44.6989 110.377 44.3835 111.212 43.7528C112.047 43.1136 112.682 42.2315 113.117 41.1065C113.551 39.973 113.769 38.6648 113.769 37.1818C113.769 35.7159 113.556 34.4332 113.13 33.3338C112.703 32.2259 112.073 31.3651 111.238 30.7514C110.402 30.1293 109.371 29.8182 108.144 29.8182C106.865 29.8182 105.8 30.1463 104.948 30.8026C104.104 31.4503 103.469 32.3324 103.043 33.4489C102.625 34.5568 102.417 35.8011 102.417 37.1818C102.417 38.5795 102.63 39.8494 103.056 40.9915C103.49 42.125 104.13 43.0284 104.973 43.7017C105.826 44.3665 106.882 44.6989 108.144 44.6989ZM126.259 20.8182V47H123.088V20.8182H126.259Z" fill="url(#paint0_linear_0_1)"/>
<path d="M151.587 19.5909L143.15 50.9375H140.388L148.826 19.5909H151.587ZM172.499 37.7955L156.033 46.1818V42.9091L168.664 36.8239L168.561 37.0284V36.517L168.664 36.7216L156.033 30.6364V27.3636L172.499 35.75V37.7955Z" fill="#545857"/>
<defs>
<linearGradient id="paint0_linear_0_1" x1="9" y1="34" x2="177" y2="34" gradientUnits="userSpaceOnUse">
<stop stop-color="#42D392"/>
<stop offset="0.620192" stop-color="#26618B"/>
</linearGradient>
</defs>
</svg>
